<svg xmlns="http://www.w3.org/2000/svg" width="20" height="20" viewBox="0 0 20 20">
    <defs>
        <clipPath id="khbgndxgta">
            <path fill="#fff" stroke="#707070" d="M0 0H20V20H0z" transform="translate(576 380)"/>
        </clipPath>
    </defs>
    <g clip-path="url(#khbgndxgta)" transform="translate(-576 -380)">
        <g>
            <path fill-rule="evenodd" d="M1.636 15.723A20.492 20.492 0 0 0 0 20l.835-.072a28.575 28.575 0 0 1 5.083-9.637 22.944 22.944 0 0 1 6.722-5.864A14.921 14.921 0 0 1 17.557 2.5a6.159 6.159 0 0 1 1.377-.039A21.581 21.581 0 0 0 6.545 10.4a37.216 37.216 0 0 0-3.523 5.44l1.943.355-.809-.4 2.894-.461c-1.074-.379-2.135-.252-2.476-.661a13.157 13.157 0 0 0 7.145-2.026 7.487 7.487 0 0 1-1.761-.353c2.879-.973 4.544-2.723 6.657-4.276-2.746.576-5.286.482-6.022-.041 4.845.36 7.975-.98 9.048-4.357a2.716 2.716 0 0 0 .06-1.1C19.326.1 15.054-.715 13.664 1.265c-.278.4-.671.758-.994 1.217L13.993 0c-3.561 1.2-3.854 2.529-5.7 6.525a12.4 12.4 0 0 1 .921-3.358c-4.45 1.717-5.933 6.04-6.17 9.717a14.359 14.359 0 0 1 .568-4.7 5.574 5.574 0 0 0-1.867 5.011l-.594-.265.313 1.17-.889-.422 1.058 2.048z" transform="translate(576.133 380)"/>
        </g>
    </g>
</svg>
