<svg xmlns="http://www.w3.org/2000/svg" width="20" height="20" viewBox="0 0 20 20">
    <defs>
        <clipPath id="eobybvbqia">
            <path fill="#fff" stroke="#707070" d="M0 0H20V20H0z" transform="translate(716 379)"/>
        </clipPath>
    </defs>
    <g clip-path="url(#eobybvbqia)" transform="translate(-716 -379)">
        <g>
            <path d="M13.282.77a.867.867 0 0 1 .939-.77.867.867 0 0 1 .939.77v3.372a.867.867 0 0 1-.939.77.867.867 0 0 1-.939-.77V.77zm-8.463 0A.867.867 0 0 1 5.758 0 .867.867 0 0 1 6.7.77v3.372a.867.867 0 0 1-.939.77.867.867 0 0 1-.939-.77V.77zM1.042 7.376h17.915V3.494a.481.481 0 0 0-.14-.337.475.475 0 0 0-.337-.14h-1.717a.521.521 0 0 1 0-1.042h1.717A1.523 1.523 0 0 1 20 3.494v14.988A1.523 1.523 0 0 1 18.48 20H1.518A1.523 1.523 0 0 1 0 18.48V3.494a1.523 1.523 0 0 1 1.518-1.518h1.835a.521.521 0 1 1 0 1.042H1.518a.481.481 0 0 0-.337.14.475.475 0 0 0-.14.337v3.881zm17.915 1.043H1.042V18.48a.481.481 0 0 0 .14.337.475.475 0 0 0 .337.14H18.48a.481.481 0 0 0 .337-.14.475.475 0 0 0 .14-.337V8.419zM8.207 3.017a.521.521 0 1 1 0-1.042h3.5a.521.521 0 0 1 0 1.042z" transform="translate(716.001 379)"/>
        </g>
    </g>
</svg>
