<svg xmlns="http://www.w3.org/2000/svg" width="72.532" height="44.105" viewBox="0 0 72.532 44.105">
  <g id="Componente_1_8" data-name="Componente 1 – 8" transform="translate(0 0.303)">
    <g id="União_1" data-name="União 1" transform="translate(0 2.5)" fill="none">
      <path d="M15.492,38a5,5,0,0,1-5-5V26.662a10.66,10.66,0,0,1-7.323-3.217,11.131,11.131,0,0,1,0-15.556,10.66,10.66,0,0,1,7.323-3.217V0H35a5,5,0,0,1,5,5V33a5,5,0,0,1-5,5Z" stroke="none"/>
      <path d="M 35.00009918212891 35.99980163574219 C 36.6545295715332 35.99980163574219 38.0004997253418 34.65423202514648 38.0004997253418 33.00030136108398 L 38.0004997253418 5.000401020050049 C 38.0004997253418 3.345970869064331 36.6545295715332 2.000000715255737 35.00009918212891 2.000000715255737 L 12.49219989776611 2.000000715255737 L 12.49219989776611 4.671430587768555 L 12.49219989776611 6.612240791320801 L 10.55226993560791 6.670530796051025 C 8.306139945983887 6.738020896911621 6.190409660339355 7.668630599975586 4.594490051269531 9.291240692138672 C 2.921409845352173 10.99158096313477 1.99999988079071 13.2556209564209 1.99999988079071 15.66630077362061 C 1.99999988079071 18.07756042480469 2.921409845352173 20.34192085266113 4.594799995422363 22.04257011413574 C 6.190399646759033 23.66487121582031 8.306139945983887 24.5954704284668 10.55226993560791 24.66296005249023 L 12.49219989776611 24.72125053405762 L 12.49219989776611 26.66206169128418 L 12.49219989776611 33.00030136108398 C 12.49219989776611 34.65423202514648 13.83776950836182 35.99980163574219 15.49170017242432 35.99980163574219 L 35.00009918212891 35.99980163574219 M 35.00009918212891 37.99980163574219 L 15.49170017242432 37.99980163574219 C 12.73050022125244 37.99980163574219 10.49219989776611 35.76150131225586 10.49219989776611 33.00030136108398 L 10.49219989776611 26.66206169128418 C 7.725130081176758 26.57892036437988 5.135329723358154 25.4443302154541 3.168899774551392 23.44500160217285 C 1.12499988079071 21.36780166625977 -1.373290956507844e-07 18.60480117797852 -1.373290956507844e-07 15.66630077362061 C -1.373290956507844e-07 12.72870063781738 1.12499988079071 9.965701103210449 3.168899774551392 7.888500690460205 C 5.135329723358154 5.88917064666748 7.725130081176758 4.754570960998535 10.49219989776611 4.671430587768555 L 10.49219989776611 8.178710686479462e-07 L 35.00009918212891 8.178710686479462e-07 C 37.76129913330078 8.178710686479462e-07 40.0004997253418 2.238300800323486 40.0004997253418 5.000401020050049 L 40.0004997253418 33.00030136108398 C 40.0004997253418 35.76150131225586 37.76129913330078 37.99980163574219 35.00009918212891 37.99980163574219 Z" stroke="none"/>
    </g>
    <path id="Caminho_2" data-name="Caminho 2" d="M0,43.5,2.7,35,6.9,21.75l.971-3.059L13.809,0" transform="translate(45.5)" fill="none" stroke="#070707" stroke-width="2"/>
    <path id="Subtração_4" data-name="Subtração 4" d="M0,20H0V17.778L10.216,10,0,2.222V0L13.134,10,0,20Z" transform="translate(59.398 22)"/>
  </g>
</svg>
